<svg xmlns="http://www.w3.org/2000/svg" viewBox="0 0 157.29 157.29"><defs><style>.cls-1{fill:#fcfeb5;}.cls-2{fill:#214054;}</style></defs><title>yellow-codepen</title><g id="Layer_2" data-name="Layer 2"><g id="Layer_1-2" data-name="Layer 1"><rect class="cls-1" width="157.29" height="157.29" rx="23.11"/><path class="cls-2" d="M22.67,100.52,75.85,136a5.07,5.07,0,0,0,5.59,0l53.18-35.47a5.08,5.08,0,0,0,2.21-4.15V60.92a5.1,5.1,0,0,0-2.21-4.16L81.44,21.3a5.09,5.09,0,0,0-5.59,0L22.67,56.76a5.1,5.1,0,0,0-2.21,4.16V96.37a5.08,5.08,0,0,0,2.21,4.15Zm51,22L34.49,96.37,52,84.68,73.65,99.17Zm10,0V99.17l21.69-14.49L122.8,96.37ZM126.83,87,114.3,78.64l12.53-8.38ZM83.64,34.81,122.8,60.92,105.33,72.61,83.64,58.12Zm-5,32L96.31,78.64,78.65,90.46,61,78.64Zm-5-32V58.12L52,72.61,34.49,60.92ZM30.47,70.27h0L43,78.65,30.47,87Z"/></g></g></svg>