<svg xmlns="http://www.w3.org/2000/svg" viewBox="0 0 184 184"><defs><style>.cls-1{fill:#181616;}.cls-2{fill:#fff;}</style></defs><title>behance_button1</title><g id="Layer_2" data-name="Layer 2"><g id="Layer_1-2" data-name="Layer 1"><rect class="cls-1" width="184" height="184" rx="23.11"/><path class="cls-2" d="M138.17,66.61H105.85V57.38h32.32Zm8,46.16c-2,6-9.36,13.85-23.55,13.85s-25.68-8-25.68-26.19,10.73-27.34,25.23-27.34c14.23,0,22.92,8.23,24.82,20.44a62.28,62.28,0,0,1,.44,9.88H110.33c.6,14.82,16.08,15.29,21.18,9.36ZM110.65,94.31h22.92c-.48-7.14-5.24-10.25-11.43-10.25C115.37,84.06,111.62,87.61,110.65,94.31Zm-44.2,32.26H36.6V57.47H68.7C94,57.85,94.46,82.61,81.26,89.35,97.23,95.17,97.77,126.57,66.45,126.57Zm-16-41.49H67c11.57,0,13.41-13.85-1.44-13.85H50.45ZM66.1,98.92H50.45v13.93H65.87C80,112.85,79.11,98.92,66.1,98.92Z"/></g></g></svg>