<svg xmlns="http://www.w3.org/2000/svg" viewBox="0 0 157.29 157.29"><defs><style>.cls-1{fill:#fcfeb5;}.cls-2{fill:#214054;}</style></defs><title>yellow-behance</title><g id="Layer_2" data-name="Layer 2"><g id="Layer_1-2" data-name="Layer 1"><rect class="cls-1" width="157.29" height="157.29" rx="23.11"/><path class="cls-2" d="M121.49,55.08h-30V46.51h30Zm7.4,42.85c-1.89,5.56-8.69,12.85-21.86,12.85s-23.84-7.41-23.84-24.31,10-25.37,23.42-25.37c13.21,0,21.27,7.63,23,19a56.63,56.63,0,0,1,.41,9.17H95.66c.55,13.76,14.92,14.2,19.66,8.7ZM96,80.79h21.27c-.45-6.63-4.87-9.51-10.61-9.51C100.34,71.28,96.86,74.57,96,80.79Zm-41,29.94H27.23V46.6H57C80.48,47,80.93,69.93,68.67,76.19,83.5,81.59,84,110.73,54.93,110.73ZM40.08,72.22H55.44c10.74,0,12.45-12.86-1.34-12.86h-14ZM54.61,85.07H40.08V98H54.4C67.49,98,66.69,85.07,54.61,85.07Z"/></g></g></svg>