<svg xmlns="http://www.w3.org/2000/svg" viewBox="0 0 157.29 157.29"><defs><style>.cls-1,.cls-3{fill:#fcfeb5;}.cls-2{fill:#214054;}.cls-3{fill-rule:evenodd;}</style></defs><title>yellow-github</title><g id="Layer_2" data-name="Layer 2"><g id="Layer_1-2" data-name="Layer 1"><rect class="cls-1" width="157.29" height="157.29" rx="23.11"/><path class="cls-2" d="M116.6,142.06q-7.44,7.62-14.87,15.23H56.42a100.33,100.33,0,0,1-14.53-10.07c-2.79-2.32-21.12-17.35-28.5-38.32-13-37.08,8.36-70.27,11.26-74.61C35.4,29.37,60.32,19.82,91.14,25a109.75,109.75,0,0,1,33,11.15,157.84,157.84,0,0,1,3.27,71.65A154.59,154.59,0,0,1,116.6,142.06Z"/><path class="cls-3" d="M79.34,8.8A76.13,76.13,0,0,0,55.27,157.16c3.81.7,5.2-1.65,5.2-3.66,0-1.82-.07-7.81-.1-14.18-21.18,4.61-25.65-9-25.65-9-3.46-8.8-8.45-11.14-8.45-11.14-6.91-4.72.52-4.62.52-4.62,7.65.53,11.67,7.84,11.67,7.84,6.79,11.64,17.81,8.27,22.15,6.33.69-4.92,2.66-8.28,4.84-10.18C48.54,116.65,30.76,110.12,30.76,81a29.46,29.46,0,0,1,7.85-20.43c-.79-1.92-3.4-9.66.74-20.15,0,0,6.39-2,20.93,7.8a72.27,72.27,0,0,1,38.13,0c14.53-9.84,20.91-7.8,20.91-7.8,4.15,10.49,1.54,18.23.75,20.15A29.4,29.4,0,0,1,127.9,81c0,29.24-17.8,35.67-34.76,37.56,2.73,2.36,5.17,7,5.17,14.1,0,10.18-.09,18.38-.09,20.89,0,2,1.37,4.4,5.23,3.65A76.14,76.14,0,0,0,79.34,8.8Z"/><path class="cls-1" d="M32.05,118.1c-.17.38-.77.49-1.31.23s-.86-.76-.68-1.14.76-.5,1.31-.24.87.77.68,1.15Z"/><path class="cls-1" d="M35.13,121.54c-.36.33-1.07.18-1.55-.35s-.6-1.25-.23-1.59a1.19,1.19,0,0,1,1.56.36c.5.53.6,1.24.22,1.58Z"/><path class="cls-1" d="M38.13,125.92c-.46.33-1.23,0-1.7-.65s-.47-1.49,0-1.82,1.23,0,1.7.64.47,1.5,0,1.83Z"/><path class="cls-1" d="M42.24,130.16c-.41.46-1.3.33-2-.29a1.48,1.48,0,0,1-.44-2c.43-.46,1.32-.33,2,.29s.86,1.49.41,1.95Z"/><path class="cls-1" d="M47.92,132.62c-.19.59-1,.86-1.91.61s-1.42-1-1.25-1.56,1-.88,1.91-.61,1.42.95,1.25,1.56Z"/><path class="cls-1" d="M54.15,133.07c0,.63-.71,1.15-1.62,1.16s-1.65-.48-1.66-1.1S51.59,132,52.5,132s1.65.49,1.65,1.11Z"/><path class="cls-1" d="M59.94,132.09c.11.61-.52,1.24-1.42,1.41s-1.7-.22-1.81-.83.53-1.26,1.41-1.42,1.71.21,1.82.84Z"/></g></g></svg>