<svg xmlns="http://www.w3.org/2000/svg" viewBox="0 0 157.29 157.29"><defs><style>.cls-1{fill:#fcfeb5;}.cls-2{fill:#214054;}</style></defs><title>yellow-insta</title><g id="Layer_2" data-name="Layer 2"><g id="Layer_1-2" data-name="Layer 1"><rect class="cls-1" width="157.29" height="157.29" rx="23.11"/><path class="cls-2" d="M78.65,32.19c15.13,0,16.92.05,22.9.33,15.36.7,22.53,8,23.23,23.23.28,6,.33,7.77.33,22.9s-.06,16.93-.33,22.9c-.7,15.23-7.86,22.53-23.23,23.23-6,.28-7.76.33-22.9.33s-16.93,0-22.91-.33c-15.39-.7-22.53-8-23.23-23.23-.27-6-.33-7.77-.33-22.9s.06-16.93.33-22.91c.71-15.24,7.86-22.53,23.23-23.23C61.72,32.24,63.51,32.19,78.65,32.19Zm0-10.22c-15.4,0-17.32.07-23.37.34-20.58,1-32,12.37-33,33-.28,6-.35,8-.35,23.37S22,96,22.31,102c1,20.59,12.37,32,33,33,6,.27,8,.34,23.37.34S96,135.25,102,135c20.57-.95,32-12.37,33-33,.28-6,.35-8,.35-23.36s-.07-17.32-.34-23.37c-.93-20.56-12.36-32-33-33C96,22,94,22,78.65,22Zm0,27.57a29.11,29.11,0,1,0,29.1,29.11A29.11,29.11,0,0,0,78.65,49.54Zm0,48A18.9,18.9,0,1,1,97.54,78.65,18.9,18.9,0,0,1,78.65,97.54ZM108.9,41.6a6.8,6.8,0,1,0,6.8,6.8A6.8,6.8,0,0,0,108.9,41.6Z"/></g></g></svg>