<svg xmlns="http://www.w3.org/2000/svg" viewBox="0 0 157.29 157.29"><defs><style>.cls-1{fill:#fcfeb5;}.cls-2{fill:#214054;fill-rule:evenodd;}</style></defs><title>yellow-medium</title><g id="Layer_2" data-name="Layer 2"><g id="Layer_1-2" data-name="Layer 1"><rect class="cls-1" width="157.29" height="157.29" rx="23.11"/><path class="cls-2" d="M40.14,54.93a3.9,3.9,0,0,0-1.27-3.3L29.45,40.27V38.58H58.71L81.33,88.19l19.89-49.61h27.9v1.69L121.06,48a2.38,2.38,0,0,0-.9,2.26V107a2.38,2.38,0,0,0,.9,2.26l7.87,7.73v1.69H89.34V117l8.16-7.92c.8-.8.8-1,.8-2.26V61L75.63,118.53H72.57L46.17,61V99.54A5.36,5.36,0,0,0,47.63,104l10.61,12.86v1.7H28.17v-1.7L38.78,104a5.13,5.13,0,0,0,1.36-4.43Z"/></g></g></svg>