<svg xmlns="http://www.w3.org/2000/svg" viewBox="0 0 184 184"><defs><style>.cls-1,.cls-3{fill:#181616;}.cls-2{fill:#fff;}.cls-3{fill-rule:evenodd;}</style></defs><title>github_button1</title><g id="Layer_2" data-name="Layer 2"><g id="Layer_1-2" data-name="Layer 1"><rect class="cls-1" width="184" height="184" rx="23.11"/><path class="cls-2" d="M136.4,165.85,119,184H66a117.81,117.81,0,0,1-17-12c-3.26-2.77-24.7-20.68-33.33-45.66C.4,82.16,25.45,42.61,28.84,37.44c12.57-5.86,41.72-17.24,77.77-11.09a127,127,0,0,1,38.57,13.28A191.64,191.64,0,0,1,149,125,186.86,186.86,0,0,1,136.4,165.85Z"/><path class="cls-3" d="M92.81,10.3A89.06,89.06,0,0,0,64.66,183.85c4.45.82,6.08-1.94,6.08-4.29,0-2.12-.08-9.14-.12-16.58-24.77,5.39-30-10.5-30-10.5-4-10.3-9.89-13-9.89-13-8.08-5.53.61-5.42.61-5.42,8.94.63,13.65,9.18,13.65,9.18,7.94,13.61,20.84,9.68,25.92,7.4.8-5.75,3.1-9.68,5.65-11.91C56.78,136.45,36,128.82,36,94.69a34.49,34.49,0,0,1,9.17-23.9c-.92-2.24-4-11.3.87-23.56,0,0,7.48-2.4,24.49,9.12a84.65,84.65,0,0,1,44.6,0c17-11.52,24.46-9.12,24.46-9.12,4.85,12.26,1.8,21.32.88,23.56a34.4,34.4,0,0,1,9.16,23.9c0,34.21-20.83,41.74-40.66,43.94,3.19,2.77,6,8.19,6,16.49,0,11.92-.1,21.51-.1,24.44,0,2.37,1.6,5.15,6.11,4.28A89.06,89.06,0,0,0,92.81,10.3Z"/><path class="cls-1" d="M37.49,138.15c-.2.45-.89.58-1.53.27s-1-.89-.8-1.33.89-.58,1.54-.28,1,.9.79,1.34Z"/><path class="cls-1" d="M41.1,142.18a1.37,1.37,0,0,1-1.82-.42,1.35,1.35,0,0,1-.26-1.85c.43-.39,1.24-.2,1.82.42s.7,1.45.26,1.85Z"/><path class="cls-1" d="M44.61,147.3c-.55.38-1.44,0-2-.76s-.55-1.75,0-2.13,1.43,0,2,.75.54,1.76,0,2.14Z"/><path class="cls-1" d="M49.42,152.26c-.49.54-1.53.39-2.29-.34s-1-1.74-.51-2.28,1.54-.38,2.31.34,1,1.75.49,2.28Z"/><path class="cls-1" d="M56.05,155.14c-.21.69-1.21,1-2.22.71s-1.67-1.12-1.47-1.82,1.22-1,2.24-.72,1.66,1.12,1.45,1.83Z"/><path class="cls-1" d="M63.34,155.67c0,.73-.83,1.34-1.89,1.36s-1.93-.57-1.94-1.3.84-1.34,1.9-1.36,1.93.57,1.93,1.3Z"/><path class="cls-1" d="M70.12,154.52c.13.71-.61,1.45-1.66,1.64s-2-.25-2.12-1,.62-1.47,1.65-1.66,2,.25,2.13,1Z"/></g></g></svg>