<svg xmlns="http://www.w3.org/2000/svg" viewBox="0 0 184 184"><defs><style>.cls-1{fill:#181616;}.cls-2{fill:#fff;}</style></defs><title>insta_button1</title><g id="Layer_2" data-name="Layer 2"><g id="Layer_1-2" data-name="Layer 1"><rect class="cls-1" width="184" height="184" rx="23.11"/><path class="cls-2" d="M92,37.65c17.7,0,19.8.07,26.79.39,18,.82,26.36,9.34,27.18,27.18.32,7,.38,9.08.38,26.79s-.06,19.8-.38,26.78c-.82,17.82-9.19,26.36-27.18,27.18-7,.32-9.08.39-26.79.39s-19.8-.07-26.79-.39c-18-.82-26.36-9.39-27.18-27.18-.32-7-.38-9.08-.38-26.79s.07-19.8.38-26.79c.83-17.83,9.2-26.36,27.18-27.18C72.2,37.72,74.3,37.65,92,37.65ZM92,25.7c-18,0-20.26.08-27.33.4C40.59,27.21,27.21,40.56,26.11,64.66,25.78,71.74,25.7,74,25.7,92s.08,20.26.4,27.34c1.11,24.07,14.46,37.45,38.56,38.56,7.08.32,9.33.4,27.34.4s20.26-.08,27.34-.4c24-1.11,37.46-14.46,38.55-38.56.33-7.08.41-9.33.41-27.34s-.08-20.26-.4-27.33c-1.08-24.06-14.46-37.46-38.56-38.56C112.26,25.78,110,25.7,92,25.7ZM92,58a34,34,0,1,0,34,34A34,34,0,0,0,92,58Zm0,56.14A22.1,22.1,0,1,1,114.1,92,22.1,22.1,0,0,1,92,114.1Zm35.39-65.44a8,8,0,1,0,8,8A8,8,0,0,0,127.39,48.66Z"/></g></g></svg>