<svg xmlns="http://www.w3.org/2000/svg" viewBox="0 0 184 184"><defs><style>.cls-1{fill:#fff;fill-rule:evenodd;}</style></defs><title>medium_button1</title><g id="Layer_2" data-name="Layer 2"><g id="Layer_1-2" data-name="Layer 1"><rect width="184" height="184" rx="23.11"/><path class="cls-1" d="M47,64.25a4.58,4.58,0,0,0-1.49-3.86l-11-13.28v-2H68.68l26.46,58,23.27-58H151v2l-9.42,9a2.74,2.74,0,0,0-1.05,2.65v66.41a2.74,2.74,0,0,0,1.05,2.64l9.2,9v2H104.51v-2l9.54-9.26c.94-.93.94-1.21.94-2.64V71.31L88.47,138.66H84.89L54,71.31v45.14a6.22,6.22,0,0,0,1.7,5.17l12.41,15v2H33v-2l12.4-15a6,6,0,0,0,1.6-5.17Z"/></g></g></svg>