<svg xmlns="http://www.w3.org/2000/svg" viewBox="0 0 1902.72 482.72"><defs><style>.cls-1,.cls-11,.cls-6,.cls-8{fill:#333;}.cls-1{opacity:0.6;}.cls-2{fill:#fcfeb5;}.cls-3,.cls-8{opacity:0.9;}.cls-4,.cls-9{fill:#fff;}.cls-5{fill:#444447;}.cls-6{opacity:0.75;}.cls-10,.cls-7{fill:#187daa;}.cls-11,.cls-7{opacity:0.8;}.cls-9{opacity:0.7;}.cls-12{fill:#a01212;stroke:#000;stroke-miterlimit:10;stroke-width:3px;}</style></defs><title>profile_button</title><g id="Layer_2" data-name="Layer 2"><g id="Layer_1-2" data-name="Layer 1"><path class="cls-1" d="M1898.81,482.68H1379.35l0-481.18h520.32Z"/><path class="cls-2" d="M1378.81,370.62l-712.17-2.41L667,1.5l711.81,6.58Z"/><g class="cls-3"><path class="cls-4" d="M1378.81,427.38l.54,55.3h-712q-.33-57.23-.67-114.47l713.24,2.41Q1379.34,399,1378.81,427.38Z"/></g><path class="cls-5" d="M1379.88,370.62V482.68l-158.41-112Z"/><g class="cls-3"><path class="cls-4" d="M1379.3,1.5q-.25,184.56-.49,369.12H1221.47L1046.6,1.5h332.7Z"/></g><path class="cls-6" d="M549.17,482.68q-98.49.07-197,0-133.87-.09-267.71-.41c9-57.24,40.65-208.68,169.73-337C334.35,65.57,420.11,26.58,472.88,7.58L542,1.5Z"/><path class="cls-7" d="M187.72,482.68,1,482.5Q.51,242,0,1.5H542C496.92,17.71,359.15,73.78,267.05,221.7,200.64,328.38,189.65,432,187.72,482.68Z"/><path class="cls-8" d="M667,1.5h561.13L1058.66,370.61q-96.77-93.17-194.5-185.27Q766.08,92.91,667,1.5Z"/><path class="cls-2" d="M1899.62,1.5q1.55,240.39,3.1,480.79l-394.4.39a573.64,573.64,0,0,0,206.59-113.32c55.7-47.9,87.88-94.49,98.55-110.61C1878.31,160.83,1895.09,61.57,1899.62,1.5Z"/><path class="cls-4" d="M294.47,148.8a1.19,1.19,0,0,0,0-2.38,1.19,1.19,0,0,0,0,2.38Z"/><path class="cls-4" d="M469.51,253.93a1.2,1.2,0,0,0,0-2.39,1.2,1.2,0,0,0,0,2.39Z"/><path d="M1316.67,359.59a1.2,1.2,0,0,0,0-2.39,1.2,1.2,0,0,0,0,2.39Z"/><g class="cls-3"><path class="cls-4" d="M1016.27,219.07H513.69V137.56L1016.44,140Q1016.37,179.55,1016.27,219.07Z"/></g><path class="cls-7" d="M542,1.5l7.17,481.18H667.31Q667.16,242.1,667,1.5Z"/><path class="cls-2" d="M.46,74.33,664.64,368.21.27,367.3Q.36,220.81.46,74.33Z"/><path class="cls-9" d="M580.94,482.68H394.26q-1-197.91-2.06-395.83Q486.57,284.77,580.94,482.68Z"/><g class="cls-3"><ellipse class="cls-4" cx="264.15" cy="219.07" rx="73.49" ry="72.66"/></g><ellipse class="cls-10" cx="264.15" cy="219.07" rx="54.04" ry="53.43"/><path class="cls-7" d="M1565.13,482.72q.31-240.62.65-481.22h79.82q.53,240.62,1,481.22Z"/><path class="cls-11" d="M1379.3,1.5,1900,192.61,1379.5,370.45Q1379.4,186,1379.3,1.5Z"/><ellipse class="cls-7" cx="1379.5" cy="182.01" rx="96.25" ry="95.16"/><ellipse class="cls-2" cx="1379.5" cy="182.01" rx="61.11" ry="60.42"/><line class="cls-12" y1="1.5" x2="1899.62" y2="1.5"/></g></g></svg>